<mxfile host="app.diagrams.net" modified="2021-05-26T12:21:55.149Z" agent="5.0 (Macintosh; Intel Mac OS X 10_14_6) AppleWebKit/605.1.15 (KHTML, like Gecko) Version/14.0.3 Safari/605.1.15" etag="JVgisJR1bbV_bWIbMOnN" version="14.6.12" type="github">
  <diagram id="8JMRs3o5ej77KMatKTpb" name="Page-1">
    <mxGraphModel dx="735" dy="608" grid="1" gridSize="10" guides="1" tooltips="1" connect="1" arrows="1" fold="1" page="1" pageScale="1" pageWidth="850" pageHeight="1100" math="0" shadow="0">
      <root>
        <mxCell id="0" />
        <mxCell id="1" parent="0" />
        <mxCell id="PW6qBxqiG7YlmLls5J-U-47" value="" style="group" parent="1" vertex="1" connectable="0">
          <mxGeometry x="46" y="350" width="522.46" height="220" as="geometry" />
        </mxCell>
        <mxCell id="PW6qBxqiG7YlmLls5J-U-48" value="" style="rounded=1;whiteSpace=wrap;html=1;" parent="PW6qBxqiG7YlmLls5J-U-47" vertex="1">
          <mxGeometry x="120" width="402.46" height="220" as="geometry" />
        </mxCell>
        <mxCell id="PW6qBxqiG7YlmLls5J-U-49" value="14x14" style="whiteSpace=wrap;html=1;aspect=fixed;" parent="PW6qBxqiG7YlmLls5J-U-47" vertex="1">
          <mxGeometry x="134" y="90.57894736842104" width="36.84210526315789" height="36.84210526315789" as="geometry" />
        </mxCell>
        <mxCell id="PW6qBxqiG7YlmLls5J-U-51" style="edgeStyle=orthogonalEdgeStyle;rounded=0;orthogonalLoop=1;jettySize=auto;html=1;exitX=1;exitY=0.5;exitDx=0;exitDy=0;" parent="PW6qBxqiG7YlmLls5J-U-47" source="PW6qBxqiG7YlmLls5J-U-49" target="PW6qBxqiG7YlmLls5J-U-52" edge="1">
          <mxGeometry relative="1" as="geometry">
            <mxPoint x="86.75999999999999" y="109" as="targetPoint" />
          </mxGeometry>
        </mxCell>
        <mxCell id="PW6qBxqiG7YlmLls5J-U-97" value="flatten" style="edgeLabel;html=1;align=center;verticalAlign=middle;resizable=0;points=[];" parent="PW6qBxqiG7YlmLls5J-U-51" vertex="1" connectable="0">
          <mxGeometry x="-0.2315" y="4" relative="1" as="geometry">
            <mxPoint y="-4" as="offset" />
          </mxGeometry>
        </mxCell>
        <mxCell id="PW6qBxqiG7YlmLls5J-U-52" value="196" style="rounded=0;whiteSpace=wrap;html=1;rotation=90;fillColor=#dae8fc;strokeColor=#6c8ebf;" parent="PW6qBxqiG7YlmLls5J-U-47" vertex="1">
          <mxGeometry x="140.54000000000002" y="94.58000000000001" width="181.6" height="29.47" as="geometry" />
        </mxCell>
        <mxCell id="PW6qBxqiG7YlmLls5J-U-54" value="50" style="rounded=0;whiteSpace=wrap;html=1;rotation=90;fillColor=#dae8fc;strokeColor=#6c8ebf;" parent="PW6qBxqiG7YlmLls5J-U-47" vertex="1">
          <mxGeometry x="256.91999999999996" y="94.58000000000001" width="117.54" height="29.47" as="geometry" />
        </mxCell>
        <mxCell id="PW6qBxqiG7YlmLls5J-U-55" style="edgeStyle=orthogonalEdgeStyle;rounded=0;orthogonalLoop=1;jettySize=auto;html=1;exitX=0.5;exitY=0;exitDx=0;exitDy=0;" parent="PW6qBxqiG7YlmLls5J-U-47" source="PW6qBxqiG7YlmLls5J-U-52" target="PW6qBxqiG7YlmLls5J-U-54" edge="1">
          <mxGeometry relative="1" as="geometry" />
        </mxCell>
        <mxCell id="PW6qBxqiG7YlmLls5J-U-56" value="2x1" style="rounded=0;whiteSpace=wrap;html=1;rotation=0;" parent="PW6qBxqiG7YlmLls5J-U-47" vertex="1">
          <mxGeometry x="448.2304918032787" y="94.26315789473685" width="56.22950819672131" height="29.473684210526315" as="geometry" />
        </mxCell>
        <mxCell id="PW6qBxqiG7YlmLls5J-U-57" value="" style="ellipse;whiteSpace=wrap;html=1;aspect=fixed;" parent="PW6qBxqiG7YlmLls5J-U-47" vertex="1">
          <mxGeometry x="221.34" y="25" width="20" height="20" as="geometry" />
        </mxCell>
        <mxCell id="PW6qBxqiG7YlmLls5J-U-58" value="" style="ellipse;whiteSpace=wrap;html=1;aspect=fixed;" parent="PW6qBxqiG7YlmLls5J-U-47" vertex="1">
          <mxGeometry x="221.34" y="48" width="20" height="20" as="geometry" />
        </mxCell>
        <mxCell id="PW6qBxqiG7YlmLls5J-U-59" value="" style="ellipse;whiteSpace=wrap;html=1;aspect=fixed;" parent="PW6qBxqiG7YlmLls5J-U-47" vertex="1">
          <mxGeometry x="221.34" y="70.57999999999998" width="20" height="20" as="geometry" />
        </mxCell>
        <mxCell id="PW6qBxqiG7YlmLls5J-U-60" value="" style="ellipse;whiteSpace=wrap;html=1;aspect=fixed;" parent="PW6qBxqiG7YlmLls5J-U-47" vertex="1">
          <mxGeometry x="221.34" y="176" width="20" height="20" as="geometry" />
        </mxCell>
        <mxCell id="PW6qBxqiG7YlmLls5J-U-61" value="" style="endArrow=none;dashed=1;html=1;dashPattern=1 3;strokeWidth=2;" parent="PW6qBxqiG7YlmLls5J-U-47" edge="1">
          <mxGeometry width="50" height="50" relative="1" as="geometry">
            <mxPoint x="230.92" y="169" as="sourcePoint" />
            <mxPoint x="230.92" y="129" as="targetPoint" />
          </mxGeometry>
        </mxCell>
        <mxCell id="PW6qBxqiG7YlmLls5J-U-62" value="" style="ellipse;whiteSpace=wrap;html=1;aspect=fixed;" parent="PW6qBxqiG7YlmLls5J-U-47" vertex="1">
          <mxGeometry x="305.69" y="55" width="20" height="20" as="geometry" />
        </mxCell>
        <mxCell id="PW6qBxqiG7YlmLls5J-U-63" value="" style="ellipse;whiteSpace=wrap;html=1;aspect=fixed;" parent="PW6qBxqiG7YlmLls5J-U-47" vertex="1">
          <mxGeometry x="305.69" y="77" width="20" height="20" as="geometry" />
        </mxCell>
        <mxCell id="PW6qBxqiG7YlmLls5J-U-64" value="" style="ellipse;whiteSpace=wrap;html=1;aspect=fixed;" parent="PW6qBxqiG7YlmLls5J-U-47" vertex="1">
          <mxGeometry x="305.69" y="145" width="20" height="20" as="geometry" />
        </mxCell>
        <mxCell id="PW6qBxqiG7YlmLls5J-U-65" value="" style="endArrow=none;dashed=1;html=1;dashPattern=1 3;strokeWidth=2;" parent="PW6qBxqiG7YlmLls5J-U-47" edge="1">
          <mxGeometry width="50" height="50" relative="1" as="geometry">
            <mxPoint x="316.46000000000004" y="142" as="sourcePoint" />
            <mxPoint x="316.46" y="120" as="targetPoint" />
          </mxGeometry>
        </mxCell>
        <mxCell id="PW6qBxqiG7YlmLls5J-U-66" style="edgeStyle=orthogonalEdgeStyle;rounded=0;orthogonalLoop=1;jettySize=auto;html=1;exitX=0.5;exitY=0;exitDx=0;exitDy=0;" parent="PW6qBxqiG7YlmLls5J-U-47" source="PW6qBxqiG7YlmLls5J-U-67" target="PW6qBxqiG7YlmLls5J-U-56" edge="1">
          <mxGeometry relative="1" as="geometry" />
        </mxCell>
        <mxCell id="PW6qBxqiG7YlmLls5J-U-67" value="50" style="rounded=0;whiteSpace=wrap;html=1;rotation=90;fillColor=#dae8fc;strokeColor=#6c8ebf;" parent="PW6qBxqiG7YlmLls5J-U-47" vertex="1">
          <mxGeometry x="330.68999999999994" y="94.58000000000001" width="117.54" height="29.47" as="geometry" />
        </mxCell>
        <mxCell id="PW6qBxqiG7YlmLls5J-U-68" style="edgeStyle=orthogonalEdgeStyle;rounded=0;orthogonalLoop=1;jettySize=auto;html=1;exitX=0.5;exitY=0;exitDx=0;exitDy=0;entryX=0.5;entryY=1;entryDx=0;entryDy=0;" parent="PW6qBxqiG7YlmLls5J-U-47" source="PW6qBxqiG7YlmLls5J-U-54" target="PW6qBxqiG7YlmLls5J-U-67" edge="1">
          <mxGeometry relative="1" as="geometry" />
        </mxCell>
        <mxCell id="PW6qBxqiG7YlmLls5J-U-69" value="" style="ellipse;whiteSpace=wrap;html=1;aspect=fixed;" parent="PW6qBxqiG7YlmLls5J-U-47" vertex="1">
          <mxGeometry x="379.46" y="55" width="20" height="20" as="geometry" />
        </mxCell>
        <mxCell id="PW6qBxqiG7YlmLls5J-U-70" value="" style="ellipse;whiteSpace=wrap;html=1;aspect=fixed;" parent="PW6qBxqiG7YlmLls5J-U-47" vertex="1">
          <mxGeometry x="379.46" y="78" width="20" height="20" as="geometry" />
        </mxCell>
        <mxCell id="PW6qBxqiG7YlmLls5J-U-71" value="" style="ellipse;whiteSpace=wrap;html=1;aspect=fixed;" parent="PW6qBxqiG7YlmLls5J-U-47" vertex="1">
          <mxGeometry x="379.46" y="146" width="20" height="20" as="geometry" />
        </mxCell>
        <mxCell id="PW6qBxqiG7YlmLls5J-U-72" value="" style="endArrow=none;dashed=1;html=1;dashPattern=1 3;strokeWidth=2;" parent="PW6qBxqiG7YlmLls5J-U-47" edge="1">
          <mxGeometry width="50" height="50" relative="1" as="geometry">
            <mxPoint x="390.22999999999996" y="142" as="sourcePoint" />
            <mxPoint x="390.22999999999996" y="120" as="targetPoint" />
          </mxGeometry>
        </mxCell>
        <mxCell id="PW6qBxqiG7YlmLls5J-U-73" value="ReLU" style="text;html=1;strokeColor=none;fillColor=none;align=center;verticalAlign=middle;whiteSpace=wrap;rounded=0;" parent="PW6qBxqiG7YlmLls5J-U-47" vertex="1">
          <mxGeometry x="251.46" y="87" width="40" height="20" as="geometry" />
        </mxCell>
        <mxCell id="PW6qBxqiG7YlmLls5J-U-74" value="ReLU" style="text;html=1;strokeColor=none;fillColor=none;align=center;verticalAlign=middle;whiteSpace=wrap;rounded=0;" parent="PW6qBxqiG7YlmLls5J-U-47" vertex="1">
          <mxGeometry x="331.46" y="87.31" width="40" height="20" as="geometry" />
        </mxCell>
        <mxCell id="PW6qBxqiG7YlmLls5J-U-75" value="Linear Layer" style="text;html=1;fillColor=#dae8fc;align=center;verticalAlign=middle;whiteSpace=wrap;rounded=0;strokeColor=#7EA6E0;" parent="PW6qBxqiG7YlmLls5J-U-47" vertex="1">
          <mxGeometry x="259.12999999999994" y="19" width="113.12" height="20" as="geometry" />
        </mxCell>
        <mxCell id="PW6qBxqiG7YlmLls5J-U-76" value="Output" style="text;html=1;strokeColor=none;fillColor=none;align=center;verticalAlign=middle;whiteSpace=wrap;rounded=0;" parent="PW6qBxqiG7YlmLls5J-U-47" vertex="1">
          <mxGeometry x="448.22999999999996" y="80" width="51.56" height="10" as="geometry" />
        </mxCell>
        <mxCell id="PW6qBxqiG7YlmLls5J-U-78" style="edgeStyle=orthogonalEdgeStyle;rounded=0;orthogonalLoop=1;jettySize=auto;html=1;exitX=1;exitY=0.5;exitDx=0;exitDy=0;entryX=0.5;entryY=1;entryDx=0;entryDy=0;" parent="1" source="PW6qBxqiG7YlmLls5J-U-56" target="PW6qBxqiG7YlmLls5J-U-77" edge="1">
          <mxGeometry relative="1" as="geometry">
            <Array as="points">
              <mxPoint x="600" y="459" />
              <mxPoint x="600" y="330" />
            </Array>
          </mxGeometry>
        </mxCell>
        <mxCell id="PW6qBxqiG7YlmLls5J-U-88" value="" style="group;fillColor=#dae8fc;strokeColor=#6c8ebf;" parent="1" vertex="1" connectable="0">
          <mxGeometry x="640" y="270" width="30" height="120" as="geometry" />
        </mxCell>
        <mxCell id="PW6qBxqiG7YlmLls5J-U-77" value="4" style="rounded=0;whiteSpace=wrap;html=1;strokeColor=#6c8ebf;rotation=90;fillColor=#dae8fc;" parent="PW6qBxqiG7YlmLls5J-U-88" vertex="1">
          <mxGeometry x="-45" y="45" width="120" height="30" as="geometry" />
        </mxCell>
        <mxCell id="PW6qBxqiG7YlmLls5J-U-80" value="" style="ellipse;whiteSpace=wrap;html=1;aspect=fixed;" parent="PW6qBxqiG7YlmLls5J-U-88" vertex="1">
          <mxGeometry x="5" y="5" width="20" height="20" as="geometry" />
        </mxCell>
        <mxCell id="PW6qBxqiG7YlmLls5J-U-81" value="" style="ellipse;whiteSpace=wrap;html=1;aspect=fixed;" parent="PW6qBxqiG7YlmLls5J-U-88" vertex="1">
          <mxGeometry x="5" y="95" width="20" height="20" as="geometry" />
        </mxCell>
        <mxCell id="PW6qBxqiG7YlmLls5J-U-82" value="" style="ellipse;whiteSpace=wrap;html=1;aspect=fixed;" parent="PW6qBxqiG7YlmLls5J-U-88" vertex="1">
          <mxGeometry x="5" y="31" width="20" height="20" as="geometry" />
        </mxCell>
        <mxCell id="PW6qBxqiG7YlmLls5J-U-83" value="" style="ellipse;whiteSpace=wrap;html=1;aspect=fixed;" parent="PW6qBxqiG7YlmLls5J-U-88" vertex="1">
          <mxGeometry x="5" y="69" width="20" height="20" as="geometry" />
        </mxCell>
        <mxCell id="PW6qBxqiG7YlmLls5J-U-89" value="2x1" style="rounded=0;whiteSpace=wrap;html=1;rotation=0;" parent="1" vertex="1">
          <mxGeometry x="740.0004918032787" y="315.2631578947369" width="56.22950819672131" height="29.473684210526315" as="geometry" />
        </mxCell>
        <mxCell id="PW6qBxqiG7YlmLls5J-U-90" value="Output" style="text;html=1;strokeColor=none;fillColor=none;align=center;verticalAlign=middle;whiteSpace=wrap;rounded=0;" parent="1" vertex="1">
          <mxGeometry x="740" y="300" width="51.56" height="10" as="geometry" />
        </mxCell>
        <mxCell id="PW6qBxqiG7YlmLls5J-U-91" style="edgeStyle=orthogonalEdgeStyle;rounded=0;orthogonalLoop=1;jettySize=auto;html=1;exitX=0.5;exitY=0;exitDx=0;exitDy=0;entryX=0;entryY=0.5;entryDx=0;entryDy=0;" parent="1" source="PW6qBxqiG7YlmLls5J-U-77" target="PW6qBxqiG7YlmLls5J-U-89" edge="1">
          <mxGeometry relative="1" as="geometry" />
        </mxCell>
        <mxCell id="PW6qBxqiG7YlmLls5J-U-99" value="" style="group" parent="1" vertex="1" connectable="0">
          <mxGeometry x="45" y="86.26" width="522.46" height="220" as="geometry" />
        </mxCell>
        <mxCell id="PW6qBxqiG7YlmLls5J-U-100" value="" style="rounded=1;whiteSpace=wrap;html=1;" parent="PW6qBxqiG7YlmLls5J-U-99" vertex="1">
          <mxGeometry x="120" width="402.46" height="220" as="geometry" />
        </mxCell>
        <mxCell id="PW6qBxqiG7YlmLls5J-U-101" value="14x14" style="whiteSpace=wrap;html=1;aspect=fixed;" parent="PW6qBxqiG7YlmLls5J-U-99" vertex="1">
          <mxGeometry x="134" y="90.57894736842104" width="36.84210526315789" height="36.84210526315789" as="geometry" />
        </mxCell>
        <mxCell id="PW6qBxqiG7YlmLls5J-U-102" style="edgeStyle=orthogonalEdgeStyle;rounded=0;orthogonalLoop=1;jettySize=auto;html=1;exitX=1;exitY=0.5;exitDx=0;exitDy=0;" parent="PW6qBxqiG7YlmLls5J-U-99" source="PW6qBxqiG7YlmLls5J-U-101" target="PW6qBxqiG7YlmLls5J-U-104" edge="1">
          <mxGeometry relative="1" as="geometry">
            <mxPoint x="86.75999999999999" y="109" as="targetPoint" />
          </mxGeometry>
        </mxCell>
        <mxCell id="PW6qBxqiG7YlmLls5J-U-103" value="flatten" style="edgeLabel;html=1;align=center;verticalAlign=middle;resizable=0;points=[];" parent="PW6qBxqiG7YlmLls5J-U-102" vertex="1" connectable="0">
          <mxGeometry x="-0.2315" y="4" relative="1" as="geometry">
            <mxPoint y="-4" as="offset" />
          </mxGeometry>
        </mxCell>
        <mxCell id="PW6qBxqiG7YlmLls5J-U-104" value="196" style="rounded=0;whiteSpace=wrap;html=1;rotation=90;fillColor=#dae8fc;strokeColor=#6c8ebf;" parent="PW6qBxqiG7YlmLls5J-U-99" vertex="1">
          <mxGeometry x="140.54000000000002" y="94.58000000000001" width="181.6" height="29.47" as="geometry" />
        </mxCell>
        <mxCell id="PW6qBxqiG7YlmLls5J-U-105" value="50" style="rounded=0;whiteSpace=wrap;html=1;rotation=90;fillColor=#dae8fc;strokeColor=#6c8ebf;" parent="PW6qBxqiG7YlmLls5J-U-99" vertex="1">
          <mxGeometry x="256.91999999999996" y="94.58000000000001" width="117.54" height="29.47" as="geometry" />
        </mxCell>
        <mxCell id="PW6qBxqiG7YlmLls5J-U-106" style="edgeStyle=orthogonalEdgeStyle;rounded=0;orthogonalLoop=1;jettySize=auto;html=1;exitX=0.5;exitY=0;exitDx=0;exitDy=0;" parent="PW6qBxqiG7YlmLls5J-U-99" source="PW6qBxqiG7YlmLls5J-U-104" target="PW6qBxqiG7YlmLls5J-U-105" edge="1">
          <mxGeometry relative="1" as="geometry" />
        </mxCell>
        <mxCell id="PW6qBxqiG7YlmLls5J-U-107" value="2x1" style="rounded=0;whiteSpace=wrap;html=1;rotation=0;" parent="PW6qBxqiG7YlmLls5J-U-99" vertex="1">
          <mxGeometry x="448.2304918032787" y="94.26315789473685" width="56.22950819672131" height="29.473684210526315" as="geometry" />
        </mxCell>
        <mxCell id="PW6qBxqiG7YlmLls5J-U-108" value="" style="ellipse;whiteSpace=wrap;html=1;aspect=fixed;" parent="PW6qBxqiG7YlmLls5J-U-99" vertex="1">
          <mxGeometry x="221.34" y="25" width="20" height="20" as="geometry" />
        </mxCell>
        <mxCell id="PW6qBxqiG7YlmLls5J-U-109" value="" style="ellipse;whiteSpace=wrap;html=1;aspect=fixed;" parent="PW6qBxqiG7YlmLls5J-U-99" vertex="1">
          <mxGeometry x="221.34" y="48" width="20" height="20" as="geometry" />
        </mxCell>
        <mxCell id="PW6qBxqiG7YlmLls5J-U-110" value="" style="ellipse;whiteSpace=wrap;html=1;aspect=fixed;" parent="PW6qBxqiG7YlmLls5J-U-99" vertex="1">
          <mxGeometry x="221.34" y="70.57999999999998" width="20" height="20" as="geometry" />
        </mxCell>
        <mxCell id="PW6qBxqiG7YlmLls5J-U-111" value="" style="ellipse;whiteSpace=wrap;html=1;aspect=fixed;" parent="PW6qBxqiG7YlmLls5J-U-99" vertex="1">
          <mxGeometry x="221.34" y="176" width="20" height="20" as="geometry" />
        </mxCell>
        <mxCell id="PW6qBxqiG7YlmLls5J-U-112" value="" style="endArrow=none;dashed=1;html=1;dashPattern=1 3;strokeWidth=2;" parent="PW6qBxqiG7YlmLls5J-U-99" edge="1">
          <mxGeometry width="50" height="50" relative="1" as="geometry">
            <mxPoint x="230.92" y="169" as="sourcePoint" />
            <mxPoint x="230.92" y="129" as="targetPoint" />
          </mxGeometry>
        </mxCell>
        <mxCell id="PW6qBxqiG7YlmLls5J-U-113" value="" style="ellipse;whiteSpace=wrap;html=1;aspect=fixed;" parent="PW6qBxqiG7YlmLls5J-U-99" vertex="1">
          <mxGeometry x="305.69" y="55" width="20" height="20" as="geometry" />
        </mxCell>
        <mxCell id="PW6qBxqiG7YlmLls5J-U-114" value="" style="ellipse;whiteSpace=wrap;html=1;aspect=fixed;" parent="PW6qBxqiG7YlmLls5J-U-99" vertex="1">
          <mxGeometry x="305.69" y="77" width="20" height="20" as="geometry" />
        </mxCell>
        <mxCell id="PW6qBxqiG7YlmLls5J-U-115" value="" style="ellipse;whiteSpace=wrap;html=1;aspect=fixed;" parent="PW6qBxqiG7YlmLls5J-U-99" vertex="1">
          <mxGeometry x="305.69" y="145" width="20" height="20" as="geometry" />
        </mxCell>
        <mxCell id="PW6qBxqiG7YlmLls5J-U-116" value="" style="endArrow=none;dashed=1;html=1;dashPattern=1 3;strokeWidth=2;" parent="PW6qBxqiG7YlmLls5J-U-99" edge="1">
          <mxGeometry width="50" height="50" relative="1" as="geometry">
            <mxPoint x="316.46000000000004" y="142" as="sourcePoint" />
            <mxPoint x="316.46" y="120" as="targetPoint" />
          </mxGeometry>
        </mxCell>
        <mxCell id="PW6qBxqiG7YlmLls5J-U-117" style="edgeStyle=orthogonalEdgeStyle;rounded=0;orthogonalLoop=1;jettySize=auto;html=1;exitX=0.5;exitY=0;exitDx=0;exitDy=0;" parent="PW6qBxqiG7YlmLls5J-U-99" source="PW6qBxqiG7YlmLls5J-U-118" target="PW6qBxqiG7YlmLls5J-U-107" edge="1">
          <mxGeometry relative="1" as="geometry" />
        </mxCell>
        <mxCell id="PW6qBxqiG7YlmLls5J-U-118" value="50" style="rounded=0;whiteSpace=wrap;html=1;rotation=90;fillColor=#dae8fc;strokeColor=#6c8ebf;" parent="PW6qBxqiG7YlmLls5J-U-99" vertex="1">
          <mxGeometry x="330.68999999999994" y="94.58000000000001" width="117.54" height="29.47" as="geometry" />
        </mxCell>
        <mxCell id="PW6qBxqiG7YlmLls5J-U-119" style="edgeStyle=orthogonalEdgeStyle;rounded=0;orthogonalLoop=1;jettySize=auto;html=1;exitX=0.5;exitY=0;exitDx=0;exitDy=0;entryX=0.5;entryY=1;entryDx=0;entryDy=0;" parent="PW6qBxqiG7YlmLls5J-U-99" source="PW6qBxqiG7YlmLls5J-U-105" target="PW6qBxqiG7YlmLls5J-U-118" edge="1">
          <mxGeometry relative="1" as="geometry" />
        </mxCell>
        <mxCell id="PW6qBxqiG7YlmLls5J-U-120" value="" style="ellipse;whiteSpace=wrap;html=1;aspect=fixed;" parent="PW6qBxqiG7YlmLls5J-U-99" vertex="1">
          <mxGeometry x="379.46" y="55" width="20" height="20" as="geometry" />
        </mxCell>
        <mxCell id="PW6qBxqiG7YlmLls5J-U-121" value="" style="ellipse;whiteSpace=wrap;html=1;aspect=fixed;" parent="PW6qBxqiG7YlmLls5J-U-99" vertex="1">
          <mxGeometry x="379.46" y="78" width="20" height="20" as="geometry" />
        </mxCell>
        <mxCell id="PW6qBxqiG7YlmLls5J-U-122" value="" style="ellipse;whiteSpace=wrap;html=1;aspect=fixed;" parent="PW6qBxqiG7YlmLls5J-U-99" vertex="1">
          <mxGeometry x="379.46" y="146" width="20" height="20" as="geometry" />
        </mxCell>
        <mxCell id="PW6qBxqiG7YlmLls5J-U-123" value="" style="endArrow=none;dashed=1;html=1;dashPattern=1 3;strokeWidth=2;" parent="PW6qBxqiG7YlmLls5J-U-99" edge="1">
          <mxGeometry width="50" height="50" relative="1" as="geometry">
            <mxPoint x="390.22999999999996" y="142" as="sourcePoint" />
            <mxPoint x="390.22999999999996" y="120" as="targetPoint" />
          </mxGeometry>
        </mxCell>
        <mxCell id="PW6qBxqiG7YlmLls5J-U-124" value="ReLU" style="text;html=1;strokeColor=none;fillColor=none;align=center;verticalAlign=middle;whiteSpace=wrap;rounded=0;" parent="PW6qBxqiG7YlmLls5J-U-99" vertex="1">
          <mxGeometry x="251.46" y="87" width="40" height="20" as="geometry" />
        </mxCell>
        <mxCell id="PW6qBxqiG7YlmLls5J-U-125" value="ReLU" style="text;html=1;strokeColor=none;fillColor=none;align=center;verticalAlign=middle;whiteSpace=wrap;rounded=0;" parent="PW6qBxqiG7YlmLls5J-U-99" vertex="1">
          <mxGeometry x="331.46" y="87.31" width="40" height="20" as="geometry" />
        </mxCell>
        <mxCell id="PW6qBxqiG7YlmLls5J-U-126" value="Linear Layer" style="text;html=1;fillColor=#dae8fc;align=center;verticalAlign=middle;whiteSpace=wrap;rounded=0;strokeColor=#7EA6E0;" parent="PW6qBxqiG7YlmLls5J-U-99" vertex="1">
          <mxGeometry x="259.12999999999994" y="19" width="113.12" height="20" as="geometry" />
        </mxCell>
        <mxCell id="PW6qBxqiG7YlmLls5J-U-127" value="Output" style="text;html=1;strokeColor=none;fillColor=none;align=center;verticalAlign=middle;whiteSpace=wrap;rounded=0;" parent="PW6qBxqiG7YlmLls5J-U-99" vertex="1">
          <mxGeometry x="448.22999999999996" y="80" width="51.56" height="10" as="geometry" />
        </mxCell>
        <mxCell id="PW6qBxqiG7YlmLls5J-U-128" style="edgeStyle=orthogonalEdgeStyle;rounded=0;orthogonalLoop=1;jettySize=auto;html=1;exitX=1;exitY=0.5;exitDx=0;exitDy=0;entryX=0.5;entryY=1;entryDx=0;entryDy=0;" parent="1" source="PW6qBxqiG7YlmLls5J-U-107" target="PW6qBxqiG7YlmLls5J-U-77" edge="1">
          <mxGeometry relative="1" as="geometry">
            <Array as="points">
              <mxPoint x="600" y="195" />
              <mxPoint x="600" y="330" />
            </Array>
          </mxGeometry>
        </mxCell>
        <mxCell id="PW6qBxqiG7YlmLls5J-U-129" value="flatten" style="edgeLabel;html=1;align=center;verticalAlign=middle;resizable=0;points=[];" parent="PW6qBxqiG7YlmLls5J-U-128" vertex="1" connectable="0">
          <mxGeometry x="0.5848" relative="1" as="geometry">
            <mxPoint y="6" as="offset" />
          </mxGeometry>
        </mxCell>
        <mxCell id="PW6qBxqiG7YlmLls5J-U-130" value="" style="shape=flexArrow;endArrow=classic;startArrow=classic;html=1;fillColor=#f5f5f5;strokeColor=#666666;" parent="1" edge="1">
          <mxGeometry width="100" height="100" relative="1" as="geometry">
            <mxPoint x="360" y="363" as="sourcePoint" />
            <mxPoint x="360" y="293" as="targetPoint" />
          </mxGeometry>
        </mxCell>
        <mxCell id="PW6qBxqiG7YlmLls5J-U-131" value="Shared Weights" style="text;html=1;align=center;verticalAlign=middle;resizable=0;points=[];autosize=1;strokeColor=none;" parent="1" vertex="1">
          <mxGeometry x="366" y="318.26" width="100" height="20" as="geometry" />
        </mxCell>
        <mxCell id="1ta9A-4X-HT9XT3SIpNs-1" value="Softmax" style="text;html=1;align=center;verticalAlign=middle;resizable=0;points=[];autosize=1;strokeColor=none;" vertex="1" parent="1">
          <mxGeometry x="672" y="310" width="60" height="20" as="geometry" />
        </mxCell>
      </root>
    </mxGraphModel>
  </diagram>
</mxfile>
